<?xml version="1.0" standalone="no"?>
<!DOCTYPE svg PUBLIC "-//W3C//DTD SVG 20010904//EN"
 "http://www.w3.org/TR/2001/REC-SVG-20010904/DTD/svg10.dtd">
<svg version="1.0" xmlns="http://www.w3.org/2000/svg"
 width="120.000000pt" height="112.000000pt" viewBox="0 0 120.000000 112.000000"
 preserveAspectRatio="xMidYMid meet">
<metadata>
Created by potrace 1.16, written by Peter Selinger 2001-2019
</metadata>
<g transform="translate(0.000000,112.000000) scale(0.100000,-0.100000)"
fill="#000000" stroke="none">
<path d="M525 759 c-46 -13 -111 -73 -130 -121 -21 -53 -22 -121 -3 -168 28
-66 114 -130 174 -130 36 0 29 27 -8 35 -80 17 -148 98 -148 177 1 79 70 163
144 175 26 4 36 11 36 24 0 21 -16 23 -65 8z"/>
<path d="M519 657 c-22 -14 -39 -38 -48 -64 -13 -36 -13 -45 3 -86 14 -37 26
-50 60 -66 23 -12 45 -21 49 -21 4 0 7 29 7 65 l0 65 65 0 c63 0 65 1 65 26 0
17 -14 40 -39 65 -33 34 -45 39 -83 39 -30 0 -56 -8 -79 -23z"/>
<path d="M293 515 c9 -55 50 -137 88 -173 43 -43 112 -78 167 -85 37 -4 42 -3
42 14 0 14 -7 19 -28 19 -48 0 -144 55 -178 103 -34 45 -54 96 -54 133 0 18
-6 24 -21 24 -19 0 -21 -4 -16 -35z"/>
</g>
</svg>
